<?xml version="1.0" encoding="utf-8" ?><svg xmlns="http://www.w3.org/2000/svg" xmlns:xlink="http://www.w3.org/1999/xlink" width="2000" height="2000" viewBox="0 0 2000 2000"><path d="M756.486 546.627L1041.52 546.612L1127.74 546.586C1151.07 546.587 1174.02 546.132 1197.27 548.598C1220.56 550.96 1243.36 556.869 1264.86 566.12C1366.05 610.032 1391.31 723.18 1351.92 821.245C1332.29 870.121 1287.37 899.668 1239.48 918.01L1363.81 1067.24C1304.3 1068.18 1271.71 1098.17 1252.97 1152.29L1080.51 928.893C1079.67 950.27 1080.84 977.158 1080.65 999.215C1080.14 1059.21 1081.26 1119.62 1080.5 1179.61L936.367 1179.66C936.946 1145.13 936.458 1109.34 936.447 1074.71L936.532 808.878C936.498 764.378 937.36 717.469 936.281 673.165L729.502 673.192L729.502 798.835L934.624 798.847C932.944 834.711 933.049 889.835 934.557 925.665L729.462 925.668L729.46 1179.65L585.019 1179.71L585.042 740.611C624.42 735.009 661.296 717.996 691.114 691.674C734.998 652.299 753.297 604.266 756.486 546.627ZM1080.73 827.377C1116.91 827.601 1163.47 830.219 1193.01 806.503C1211.28 787.702 1217.29 770.052 1217.25 743.699C1217.21 722.484 1211.94 700.864 1196.15 685.691C1169.12 659.71 1116.39 660.896 1080.88 661.294L1080.66 770.293C1080.62 788 1080 809.958 1080.73 827.377Z"/><path d="M1354.11 1131.35C1379.37 1127.81 1402.74 1145.33 1406.42 1170.56C1410.1 1195.8 1392.72 1219.27 1367.51 1223.1C1342.09 1226.96 1318.39 1209.4 1314.67 1183.96C1310.95 1158.52 1328.65 1134.92 1354.11 1131.35Z"/></svg>